<svg width="120" height="110" viewBox="0 0 120 110" fill="none" xmlns="http://www.w3.org/2000/svg">
<path d="M61.7023 49.2392V56.8442H49.992V61.9139C49.992 61.9139 52.4668 63.5238 55.7339 64.6444C59.4381 65.9145 63.4955 65.862 67.0969 64.3263C69.5058 63.2989 72.0095 61.5156 73.0393 58.4324C73.0393 58.4324 79.8819 34.0639 61.5157 32.5768C61.5157 32.5768 52.4089 31.5633 49.5499 37.8496C49.5499 37.8496 47.0312 42.7161 44.784 41.6352L23.6097 30.4804H14.4181C14.4181 30.4804 11.8994 30.0068 11.8994 27.1683C11.8994 24.3298 14.3502 23.991 14.3502 23.991H25.0397L38.3845 29.9394C38.3845 29.9394 41.1756 24.4636 47.167 22.0977C47.167 22.0977 51.899 20.3401 62.4178 20.3401C69.0937 20.3401 77.1926 21.422 84.0351 28.0124C90.1941 33.9441 91.8187 41.98 91.8985 51.8409C91.9893 62.9888 85.0829 77.324 64.9364 77.9333C42.6046 78.609 34.7073 68.6044 34.7073 68.6044L34.843 49.1302L61.7023 49.2392Z" fill="white"/>
<path d="M53.1815 91.3401C55.5502 91.3401 57.4705 89.4336 57.4705 87.0818C57.4705 84.7301 55.5502 82.8236 53.1815 82.8236C50.8128 82.8236 48.8926 84.7301 48.8926 87.0818C48.8926 89.4336 50.8128 91.3401 53.1815 91.3401Z" fill="white"/>
<path d="M73.5155 90.8784C75.8842 90.8784 77.8045 88.9719 77.8045 86.6202C77.8045 84.2684 75.8842 82.3619 73.5155 82.3619C71.1468 82.3619 69.2266 84.2684 69.2266 86.6202C69.2266 88.9719 71.1468 90.8784 73.5155 90.8784Z" fill="white"/>
<path d="M49.2619 100.225L46.4377 108H45.2834L48.5353 99.4688H49.2794L49.2619 100.225ZM51.6291 108L48.799 100.225L48.7814 99.4688H49.5255L52.7892 108H51.6291ZM51.4826 104.842V105.768H46.6896V104.842H51.4826ZM57.8238 106.77V99H58.9137V108H57.9176L57.8238 106.77ZM53.5582 104.9V104.777C53.5582 104.293 53.6168 103.854 53.734 103.459C53.8551 103.061 54.025 102.719 54.2437 102.434C54.4664 102.148 54.7301 101.93 55.0348 101.777C55.3434 101.621 55.6871 101.543 56.066 101.543C56.4645 101.543 56.8121 101.613 57.109 101.754C57.4098 101.891 57.6637 102.092 57.8707 102.357C58.0816 102.619 58.2477 102.936 58.3687 103.307C58.4898 103.678 58.5738 104.098 58.6207 104.566V105.105C58.5777 105.57 58.4937 105.988 58.3687 106.359C58.2477 106.73 58.0816 107.047 57.8707 107.309C57.6637 107.57 57.4098 107.771 57.109 107.912C56.8082 108.049 56.4566 108.117 56.0543 108.117C55.6832 108.117 55.3434 108.037 55.0348 107.877C54.7301 107.717 54.4664 107.492 54.2437 107.203C54.025 106.914 53.8551 106.574 53.734 106.184C53.6168 105.789 53.5582 105.361 53.5582 104.9ZM54.648 104.777V104.9C54.648 105.217 54.6793 105.514 54.7418 105.791C54.8082 106.068 54.9098 106.312 55.0465 106.523C55.1832 106.734 55.357 106.9 55.568 107.021C55.7789 107.139 56.0309 107.197 56.3238 107.197C56.6832 107.197 56.9781 107.121 57.2086 106.969C57.443 106.816 57.6305 106.615 57.7711 106.365C57.9117 106.115 58.0211 105.844 58.0992 105.551V104.139C58.0523 103.924 57.984 103.717 57.8941 103.518C57.8082 103.314 57.6949 103.135 57.5543 102.979C57.4176 102.818 57.2477 102.691 57.0445 102.598C56.8453 102.504 56.609 102.457 56.3355 102.457C56.0387 102.457 55.7828 102.52 55.568 102.645C55.357 102.766 55.1832 102.934 55.0465 103.148C54.9098 103.359 54.8082 103.605 54.7418 103.887C54.6793 104.164 54.648 104.461 54.648 104.777ZM61.7393 102.92V108H60.6494V101.66H61.6807L61.7393 102.92ZM61.5166 104.59L61.0127 104.572C61.0166 104.139 61.0733 103.738 61.1827 103.371C61.292 103 61.4541 102.678 61.669 102.404C61.8838 102.131 62.1514 101.92 62.4717 101.771C62.792 101.619 63.1631 101.543 63.585 101.543C63.8819 101.543 64.1553 101.586 64.4053 101.672C64.6553 101.754 64.8721 101.885 65.0557 102.064C65.2393 102.244 65.3819 102.475 65.4834 102.756C65.585 103.037 65.6358 103.377 65.6358 103.775V108H64.5518V103.828C64.5518 103.496 64.4952 103.23 64.3819 103.031C64.2725 102.832 64.1162 102.688 63.9131 102.598C63.71 102.504 63.4717 102.457 63.1983 102.457C62.878 102.457 62.6104 102.514 62.3955 102.627C62.1807 102.74 62.0088 102.896 61.8799 103.096C61.751 103.295 61.6573 103.523 61.5987 103.781C61.544 104.035 61.5166 104.305 61.5166 104.59ZM65.6241 103.992L64.8975 104.215C64.9014 103.867 64.958 103.533 65.0674 103.213C65.1807 102.893 65.3428 102.607 65.5537 102.357C65.7686 102.107 66.0323 101.91 66.3448 101.766C66.6573 101.617 67.0147 101.543 67.417 101.543C67.7569 101.543 68.0577 101.588 68.3194 101.678C68.585 101.768 68.8077 101.906 68.9873 102.094C69.1709 102.277 69.3096 102.514 69.4034 102.803C69.4971 103.092 69.544 103.436 69.544 103.834V108H68.4541V103.822C68.4541 103.467 68.3975 103.191 68.2842 102.996C68.1748 102.797 68.0186 102.658 67.8155 102.58C67.6162 102.498 67.378 102.457 67.1006 102.457C66.8623 102.457 66.6514 102.498 66.4678 102.58C66.2842 102.662 66.1299 102.775 66.0049 102.92C65.8799 103.061 65.7842 103.223 65.7178 103.406C65.6553 103.59 65.6241 103.785 65.6241 103.992ZM72.4223 101.66V108H71.3325V101.66H72.4223ZM71.2505 99.9785C71.2505 99.8027 71.3032 99.6543 71.4087 99.5332C71.518 99.4121 71.6782 99.3516 71.8891 99.3516C72.0962 99.3516 72.2544 99.4121 72.3637 99.5332C72.477 99.6543 72.5337 99.8027 72.5337 99.9785C72.5337 100.146 72.477 100.291 72.3637 100.412C72.2544 100.529 72.0962 100.588 71.8891 100.588C71.6782 100.588 71.518 100.529 71.4087 100.412C71.3032 100.291 71.2505 100.146 71.2505 99.9785ZM75.3066 103.014V108H74.2226V101.66H75.248L75.3066 103.014ZM75.0487 104.59L74.5976 104.572C74.6015 104.139 74.6659 103.738 74.7909 103.371C74.9159 103 75.0917 102.678 75.3183 102.404C75.5448 102.131 75.8144 101.92 76.1269 101.771C76.4433 101.619 76.7929 101.543 77.1757 101.543C77.4882 101.543 77.7694 101.586 78.0194 101.672C78.2694 101.754 78.4823 101.887 78.6581 102.07C78.8378 102.254 78.9745 102.492 79.0683 102.785C79.162 103.074 79.2089 103.428 79.2089 103.846V108H78.1191V103.834C78.1191 103.502 78.0702 103.236 77.9726 103.037C77.8749 102.834 77.7323 102.688 77.5448 102.598C77.3573 102.504 77.1269 102.457 76.8534 102.457C76.5839 102.457 76.3378 102.514 76.1152 102.627C75.8964 102.74 75.7069 102.896 75.5468 103.096C75.3905 103.295 75.2675 103.523 75.1777 103.781C75.0917 104.035 75.0487 104.305 75.0487 104.59ZM87.2625 104.654H84.9832V103.734H87.2625C87.7039 103.734 88.0613 103.664 88.3348 103.523C88.6082 103.383 88.8074 103.188 88.9324 102.938C89.0613 102.688 89.1258 102.402 89.1258 102.082C89.1258 101.789 89.0613 101.514 88.9324 101.256C88.8074 100.998 88.6082 100.791 88.3348 100.635C88.0613 100.475 87.7039 100.395 87.2625 100.395H85.2469V108H84.116V99.4688H87.2625C87.907 99.4688 88.452 99.5801 88.8973 99.8027C89.3426 100.025 89.6805 100.334 89.9109 100.729C90.1414 101.119 90.2566 101.566 90.2566 102.07C90.2566 102.617 90.1414 103.084 89.9109 103.471C89.6805 103.857 89.3426 104.152 88.8973 104.355C88.452 104.555 87.907 104.654 87.2625 104.654ZM95.2502 106.916V103.652C95.2502 103.402 95.1994 103.186 95.0979 103.002C95.0002 102.814 94.8518 102.67 94.6526 102.568C94.4534 102.467 94.2073 102.416 93.9143 102.416C93.6409 102.416 93.4006 102.463 93.1936 102.557C92.9905 102.65 92.8303 102.773 92.7131 102.926C92.5998 103.078 92.5432 103.242 92.5432 103.418H91.4592C91.4592 103.191 91.5178 102.967 91.635 102.744C91.7522 102.521 91.9202 102.32 92.1389 102.141C92.3616 101.957 92.6272 101.812 92.9358 101.707C93.2483 101.598 93.5959 101.543 93.9787 101.543C94.4397 101.543 94.8459 101.621 95.1975 101.777C95.553 101.934 95.8303 102.17 96.0295 102.486C96.2327 102.799 96.3342 103.191 96.3342 103.664V106.617C96.3342 106.828 96.3518 107.053 96.3869 107.291C96.426 107.529 96.4827 107.734 96.5569 107.906V108H95.426C95.3713 107.875 95.3284 107.709 95.2971 107.502C95.2659 107.291 95.2502 107.096 95.2502 106.916ZM95.4377 104.156L95.4494 104.918H94.3537C94.0452 104.918 93.7698 104.943 93.5276 104.994C93.2854 105.041 93.0823 105.113 92.9182 105.211C92.7541 105.309 92.6291 105.432 92.5432 105.58C92.4573 105.725 92.4143 105.895 92.4143 106.09C92.4143 106.289 92.4592 106.471 92.5491 106.635C92.6389 106.799 92.7737 106.93 92.9534 107.027C93.1369 107.121 93.3616 107.168 93.6272 107.168C93.9592 107.168 94.2522 107.098 94.5061 106.957C94.76 106.816 94.9612 106.645 95.1096 106.441C95.2619 106.238 95.344 106.041 95.3557 105.85L95.8186 106.371C95.7912 106.535 95.717 106.717 95.5959 106.916C95.4748 107.115 95.3127 107.307 95.1096 107.49C94.9104 107.67 94.6721 107.82 94.3948 107.941C94.1213 108.059 93.8127 108.117 93.469 108.117C93.0393 108.117 92.6623 108.033 92.3381 107.865C92.0178 107.697 91.7678 107.473 91.5881 107.191C91.4123 106.906 91.3244 106.588 91.3244 106.236C91.3244 105.896 91.3909 105.598 91.5237 105.34C91.6565 105.078 91.8479 104.861 92.0979 104.689C92.3479 104.514 92.6487 104.381 93.0002 104.291C93.3518 104.201 93.7444 104.156 94.178 104.156H95.4377ZM99.1833 103.014V108H98.0993V101.66H99.1247L99.1833 103.014ZM98.9255 104.59L98.4743 104.572C98.4782 104.139 98.5426 103.738 98.6676 103.371C98.7926 103 98.9684 102.678 99.195 102.404C99.4216 102.131 99.6911 101.92 100.004 101.771C100.32 101.619 100.67 101.543 101.052 101.543C101.365 101.543 101.646 101.586 101.896 101.672C102.146 101.754 102.359 101.887 102.535 102.07C102.715 102.254 102.851 102.492 102.945 102.785C103.039 103.074 103.086 103.428 103.086 103.846V108H101.996V103.834C101.996 103.502 101.947 103.236 101.849 103.037C101.752 102.834 101.609 102.688 101.422 102.598C101.234 102.504 101.004 102.457 100.73 102.457C100.461 102.457 100.215 102.514 99.9919 102.627C99.7731 102.74 99.5837 102.896 99.4235 103.096C99.2673 103.295 99.1442 103.523 99.0544 103.781C98.9684 104.035 98.9255 104.305 98.9255 104.59ZM105.876 103.014V108H104.792V101.66H105.817L105.876 103.014ZM105.618 104.59L105.167 104.572C105.171 104.139 105.235 103.738 105.36 103.371C105.485 103 105.661 102.678 105.888 102.404C106.114 102.131 106.384 101.92 106.696 101.771C107.013 101.619 107.362 101.543 107.745 101.543C108.058 101.543 108.339 101.586 108.589 101.672C108.839 101.754 109.052 101.887 109.228 102.07C109.407 102.254 109.544 102.492 109.638 102.785C109.732 103.074 109.778 103.428 109.778 103.846V108H108.689V103.834C108.689 103.502 108.64 103.236 108.542 103.037C108.444 102.834 108.302 102.688 108.114 102.598C107.927 102.504 107.696 102.457 107.423 102.457C107.153 102.457 106.907 102.514 106.685 102.627C106.466 102.74 106.276 102.896 106.116 103.096C105.96 103.295 105.837 103.523 105.747 103.781C105.661 104.035 105.618 104.305 105.618 104.59ZM114.116 108.117C113.674 108.117 113.274 108.043 112.915 107.895C112.559 107.742 112.252 107.529 111.995 107.256C111.741 106.982 111.545 106.658 111.409 106.283C111.272 105.908 111.204 105.498 111.204 105.053V104.807C111.204 104.291 111.28 103.832 111.432 103.43C111.585 103.023 111.792 102.68 112.053 102.398C112.315 102.117 112.612 101.904 112.944 101.76C113.276 101.615 113.62 101.543 113.975 101.543C114.428 101.543 114.819 101.621 115.147 101.777C115.479 101.934 115.751 102.152 115.961 102.434C116.172 102.711 116.329 103.039 116.43 103.418C116.532 103.793 116.583 104.203 116.583 104.648V105.135H111.848V104.25H115.499V104.168C115.483 103.887 115.424 103.613 115.323 103.348C115.225 103.082 115.069 102.863 114.854 102.691C114.639 102.52 114.346 102.434 113.975 102.434C113.729 102.434 113.502 102.486 113.295 102.592C113.088 102.693 112.911 102.846 112.762 103.049C112.614 103.252 112.499 103.5 112.417 103.793C112.335 104.086 112.294 104.424 112.294 104.807V105.053C112.294 105.354 112.335 105.637 112.417 105.902C112.502 106.164 112.626 106.395 112.786 106.594C112.95 106.793 113.147 106.949 113.377 107.062C113.612 107.176 113.877 107.232 114.174 107.232C114.557 107.232 114.881 107.154 115.147 106.998C115.413 106.842 115.645 106.633 115.844 106.371L116.501 106.893C116.364 107.1 116.19 107.297 115.979 107.484C115.768 107.672 115.508 107.824 115.2 107.941C114.895 108.059 114.534 108.117 114.116 108.117ZM119.086 99V108H117.996V99H119.086Z" fill="white"/>
</svg>
