<?xml version="1.0" encoding="utf-8"?>
<!-- Generator: Adobe Illustrator 27.5.0, SVG Export Plug-In . SVG Version: 6.00 Build 0)  -->
<svg version="1.1" id="Layer_1" xmlns="http://www.w3.org/2000/svg" xmlns:xlink="http://www.w3.org/1999/xlink" x="0px" y="0px"
	 viewBox="0 0 1000 1000" style="enable-background:new 0 0 1000 1000;" xml:space="preserve">
<style type="text/css">
	.st0{fill:#FFFFFF;}
	.st1{fill:#111111;}
</style>
<g>
	<path class="st0" d="M598.24,476.6v76.76H480.89v51.17c0,0,24.8,16.25,57.54,27.56c37.12,12.82,77.78,12.29,113.87-3.21
		c24.14-10.37,49.23-28.37,59.55-59.49c0,0,68.57-245.96-115.48-260.97c0,0-91.26-10.23-119.91,53.22c0,0-25.24,49.12-47.76,38.21
		L216.51,287.26H124.4c0,0-25.24-4.78-25.24-33.43s24.56-32.07,24.56-32.07h107.12l133.73,60.04c0,0,27.97-55.27,88.01-79.15
		c0,0,47.42-17.74,152.83-17.74c66.9,0,148.06,10.92,216.63,77.44c61.72,59.87,78,140.98,78.8,240.51
		c0.91,112.52-68.3,257.21-270.19,263.36c-223.79,6.82-302.93-94.16-302.93-94.16l1.36-196.56L598.24,476.6z"/>
	<circle class="st0" cx="512.85" cy="858.56" r="42.98"/>
	<circle class="st0" cx="716.62" cy="853.9" r="42.98"/>
</g>
</svg>
